<svg xmlns="http://www.w3.org/2000/svg" width="880" height="215"
     viewBox="0 0 880 215" role="img" aria-label="PandaStatusOS">
  <rect width="880" height="215" rx="28" fill="#f8faf5"/>
  <rect x="1" y="1" width="878" height="213" rx="27" fill="none"
        stroke="#717971" stroke-width="1" opacity=".35"/>
  <g transform="translate(56,50) scale(1.16)">
    <circle cx="23" cy="25" r="17" fill="#2B2B2B"/>
    <circle cx="77" cy="25" r="17" fill="#2B2B2B"/>
    <circle cx="23" cy="25" r="8.5" fill="#F26B8A"/>
    <circle cx="77" cy="25" r="8.5" fill="#F26B8A"/>
    <ellipse cx="50" cy="56" rx="43" ry="38" fill="#FFFFFF"/>
    <ellipse cx="31" cy="53" rx="13" ry="15.5" fill="#2B2B2B" transform="rotate(-14 31 53)"/>
    <ellipse cx="69" cy="53" rx="13" ry="15.5" fill="#2B2B2B" transform="rotate(14 69 53)"/>
    <circle cx="32.5" cy="52" r="5.6" fill="#FFFFFF"/>
    <circle cx="67.5" cy="52" r="5.6" fill="#FFFFFF"/>
    <circle cx="33.5" cy="53.5" r="3.1" fill="#2B2B2B"/>
    <circle cx="66.5" cy="53.5" r="3.1" fill="#2B2B2B"/>
    <ellipse cx="13" cy="69" rx="7.5" ry="5" fill="#F26B8A" opacity=".75"/>
    <ellipse cx="87" cy="69" rx="7.5" ry="5" fill="#F26B8A" opacity=".75"/>
    <ellipse cx="50" cy="68" rx="4.6" ry="3.4" fill="#2B2B2B"/>
    <path d="M50 71.5 v3.5" stroke="#2B2B2B" stroke-width="2.2" stroke-linecap="round" fill="none"/>
    <path d="M43.5 75 q6.5 6 13 0" stroke="#2B2B2B" stroke-width="2.2"
          stroke-linecap="round" fill="none"/>
  </g>
  <text x="206" y="98" font-family="ui-sans-serif,-apple-system,BlinkMacSystemFont,'Segoe UI',Roboto,'Helvetica Neue',Arial,sans-serif" font-size="52" font-weight="700"
        letter-spacing="-1" fill="#191c1a">PandaStatus<tspan
        fill="#1f6b45" font-weight="600">OS</tspan></text>
  <text x="208" y="132" font-family="ui-sans-serif,-apple-system,BlinkMacSystemFont,'Segoe UI',Roboto,'Helvetica Neue',Arial,sans-serif" font-size="17" font-weight="400"
        letter-spacing=".2" fill="#414942">Open firmware for the BIGTREETECH Panda Status P2</text>
  <text x="208" y="160" font-family="ui-sans-serif,-apple-system,BlinkMacSystemFont,'Segoe UI',Roboto,'Helvetica Neue',Arial,sans-serif" font-size="14" font-weight="500"
        letter-spacing="1.4" fill="#1f6b45">FIFTEEN STAGE ANIMATIONS  &#183;  TWO MODES  &#183;  25 LANGUAGES</text>
  <rect x="640" y="70" width="210" height="44" rx="22.0" fill="#191c1a" opacity=".92"/>
  <circle cx="662.0" cy="92.0" r="17.2" fill="#8FD3A6" opacity=".35"/>
  <circle cx="662.0" cy="92.0" r="11.4" fill="#8FD3A6"/>
  <circle cx="658.3" cy="88.0" r="4.0" fill="#DFF7E8" opacity=".9"/>
  <circle cx="685.7" cy="92.0" r="17.2" fill="#5FBF88" opacity=".35"/>
  <circle cx="685.7" cy="92.0" r="11.4" fill="#5FBF88"/>
  <circle cx="682.0" cy="88.0" r="4.0" fill="#DFF7E8" opacity=".9"/>
  <circle cx="709.4" cy="92.0" r="17.2" fill="#3FA36C" opacity=".35"/>
  <circle cx="709.4" cy="92.0" r="11.4" fill="#3FA36C"/>
  <circle cx="705.7" cy="88.0" r="4.0" fill="#DFF7E8" opacity=".9"/>
  <circle cx="733.1" cy="92.0" r="17.2" fill="#2E7D32" opacity=".35"/>
  <circle cx="733.1" cy="92.0" r="11.4" fill="#2E7D32"/>
  <circle cx="729.4" cy="88.0" r="4.0" fill="#DFF7E8" opacity=".9"/>
  <circle cx="756.9" cy="92.0" r="17.2" fill="#8FD3A6" opacity=".35"/>
  <circle cx="756.9" cy="92.0" r="11.4" fill="#8FD3A6"/>
  <circle cx="753.1" cy="88.0" r="4.0" fill="#DFF7E8" opacity=".9"/>
  <circle cx="780.6" cy="92.0" r="11.4" fill="#f8faf5" opacity=".35"/>
  <circle cx="804.3" cy="92.0" r="11.4" fill="#f8faf5" opacity=".35"/>
  <circle cx="828.0" cy="92.0" r="11.4" fill="#f8faf5" opacity=".35"/>
</svg>
