<svg xmlns="http://www.w3.org/2000/svg" viewBox="0 0 96 96">
  <path d="M61,66h14c1.7,0,3,1.3,3,3l0,0c0,1.7-1.3,3-3,3H21c-1.6,0-3-1.3-3-3l0,0c0-1.7,1.3-3,3-3h29" fill="none" stroke="currentColor" stroke-width="4" stroke-linecap="round" stroke-linejoin="round"/>
  <polygon points="54.7,92 41.3,92 34,78 62,78 " fill="none" stroke="currentColor" stroke-width="4" stroke-linecap="round" stroke-linejoin="round"/>
  <path d="M64,66h0.5c1.9,0,3.5-1.6,3.5-3.5V56H52c0,0-3,0.8-3-3c0-2.9,3-3,3-3h16v-5h-9c0,0-3,0-3-3c0-2.9,3-3,3-3h9  v-9.5c0-1.9-1.6-3.5-3.5-3.5h-33c-1.9,0-3.5,1.6-3.5,3.5v33c0,1.9,1.6,3.5,3.5,3.5H32" fill="none" stroke="currentColor" stroke-width="4" stroke-linecap="round" stroke-linejoin="round"/>
  <polygon points="37.7,17 46.3,17 51,26 33,26 " fill="none" stroke="currentColor" stroke-width="4" stroke-linecap="round" stroke-linejoin="round"/>
  <path d="M42,14c0,0,0-1.4,0-3s1.8-3,4-3h4c2.2,0,4-1.3,4-3s0-3,0-3" fill="none" stroke="currentColor" stroke-width="4" stroke-linejoin="round"/>
</svg>
