<svg xmlns="http://www.w3.org/2000/svg" viewBox="0 0 96 96">
  <path d="M6,19v-5.5c0-2.2,1.3-4,3-4s3,1.8,3,4v68c0,2.2-1.4,4-3,4s-3-1.8-3-4V25" fill="none" stroke="currentColor" stroke-width="4" stroke-linecap="round" stroke-linejoin="round"/>
  <path d="M90,77v4.5c0,2.2-1.3,4-3,4s-3-1.8-3-4v-68c0-2.2,1.3-4,3-4s3,1.8,3,4V71" fill="none" stroke="currentColor" stroke-width="4" stroke-linecap="round" stroke-linejoin="round"/>
  <path d="M51,73.6c0,2.4-1.3,4.4-3,4.4s-3-2-3-4.4V22.4c0-2.4,1.3-4.4,3-4.4s3,2,3,4.4V73.6z" fill="none" stroke="currentColor" stroke-width="2" stroke-linecap="round" stroke-linejoin="round"/>
  <path d="M45,73.6c0,2.4-1.3,4.4-3,4.4s-3-2-3-4.4V22.4c0-2.4,1.3-4.4,3-4.4s3,2,3,4.4V73.6z" fill="none" stroke="currentColor" stroke-width="2" stroke-linecap="round" stroke-linejoin="round"/>
  <path d="M39,73.6c0,2.4-1.3,4.4-3,4.4s-3-2-3-4.4V22.4c0-2.4,1.3-4.4,3-4.4s3,2,3,4.4V73.6z" fill="none" stroke="currentColor" stroke-width="2" stroke-linecap="round" stroke-linejoin="round"/>
  <path d="M33,73.6c0,2.4-1.4,4.4-3,4.4s-3-2-3-4.4V22.4c0-2.4,1.4-4.4,3-4.4s3,2,3,4.4V73.6z" fill="none" stroke="currentColor" stroke-width="2" stroke-linecap="round" stroke-linejoin="round"/>
  <path d="M57,73.6c0,2.4-1.3,4.4-3,4.4s-3-2-3-4.4V22.4c0-2.4,1.3-4.4,3-4.4s3,2,3,4.4V73.6z" fill="none" stroke="currentColor" stroke-width="2" stroke-linecap="round" stroke-linejoin="round"/>
  <path d="M63,73.6c0,2.4-1.3,4.4-3,4.4s-3-2-3-4.4V22.4c0-2.4,1.3-4.4,3-4.4s3,2,3,4.4V73.6z" fill="none" stroke="currentColor" stroke-width="2" stroke-linecap="round" stroke-linejoin="round"/>
  <path d="M69,73.6c0,2.4-1.3,4.4-3,4.4s-3-2-3-4.4V22.4c0-2.4,1.3-4.4,3-4.4s3,2,3,4.4V73.6z" fill="none" stroke="currentColor" stroke-width="2" stroke-linecap="round" stroke-linejoin="round"/>
  <path d="M75,70.8c0,2.3-1.3,4.2-3,4.2s-3-1.9-3-4.2V25.2c0-2.3,1.3-4.2,3-4.2s3,1.9,3,4.2V70.8z" fill="none" stroke="currentColor" stroke-width="2" stroke-linecap="round" stroke-linejoin="round"/>
  <path d="M27,73.6c0,2.4-1.4,4.4-3,4.4s-3-2-3-4.4V22.4c0-2.4,1.4-4.4,3-4.4s3,2,3,4.4V73.6z" fill="none" stroke="currentColor" stroke-width="2" stroke-linecap="round" stroke-linejoin="round"/>
  <line x1="14" y1="27" x2="18" y2="27" fill="none" stroke="currentColor" stroke-width="4" stroke-linejoin="round"/>
  <line x1="14" y1="70" x2="18" y2="70" fill="none" stroke="currentColor" stroke-width="4" stroke-linejoin="round"/>
  <line x1="78" y1="27" x2="82" y2="27" fill="none" stroke="currentColor" stroke-width="4" stroke-linejoin="round"/>
  <line x1="78" y1="70" x2="82" y2="70" fill="none" stroke="currentColor" stroke-width="4" stroke-linejoin="round"/>
  <circle cx="72" cy="84" r="3" fill="none" stroke="currentColor" stroke-width="2" stroke-linecap="round" stroke-linejoin="round"/>
  <line x1="69" y1="84" x2="69" y2="73" fill="none" stroke="currentColor" stroke-width="2" stroke-linecap="round" stroke-linejoin="round"/>
  <line x1="75" y1="84" x2="75" y2="73" fill="none" stroke="currentColor" stroke-width="2" stroke-linecap="round" stroke-linejoin="round"/>
</svg>
